<mxfile host="app.diagrams.net" modified="2022-12-13T09:58:17.382Z" agent="5.0 (Windows NT 10.0; Win64; x64) AppleWebKit/537.36 (KHTML, like Gecko) Chrome/108.0.0.0 Safari/537.36" etag="EYn9Vv2jtwCNeb5a5gUf" version="20.6.2" type="github">
  <diagram id="C5RBs43oDa-KdzZeNtuy" name="Page-1">
    <mxGraphModel dx="1038" dy="539" grid="1" gridSize="10" guides="1" tooltips="1" connect="1" arrows="1" fold="1" page="1" pageScale="1" pageWidth="827" pageHeight="1169" math="0" shadow="0">
      <root>
        <mxCell id="WIyWlLk6GJQsqaUBKTNV-0" />
        <mxCell id="WIyWlLk6GJQsqaUBKTNV-1" parent="WIyWlLk6GJQsqaUBKTNV-0" />
        <mxCell id="AayKa3QTp6J-LigZ_Bfz-1" value="" style="rounded=0;whiteSpace=wrap;html=1;direction=south;" parent="WIyWlLk6GJQsqaUBKTNV-1" vertex="1">
          <mxGeometry x="50" y="100" width="300" height="690" as="geometry" />
        </mxCell>
        <mxCell id="AayKa3QTp6J-LigZ_Bfz-2" value="IOT Layer" style="swimlane;startSize=20;horizontal=1;childLayout=treeLayout;horizontalTree=0;resizable=0;containerType=tree;" parent="WIyWlLk6GJQsqaUBKTNV-1" vertex="1">
          <mxGeometry x="60" y="180" width="280" height="190" as="geometry" />
        </mxCell>
        <mxCell id="AayKa3QTp6J-LigZ_Bfz-3" value="Enbled Devices" style="whiteSpace=wrap;html=1;" parent="AayKa3QTp6J-LigZ_Bfz-2" vertex="1">
          <mxGeometry x="90" y="40" width="100" height="40" as="geometry" />
        </mxCell>
        <mxCell id="AayKa3QTp6J-LigZ_Bfz-4" value="Services" style="whiteSpace=wrap;html=1;" parent="AayKa3QTp6J-LigZ_Bfz-2" vertex="1">
          <mxGeometry x="20" y="130" width="100" height="40" as="geometry" />
        </mxCell>
        <mxCell id="AayKa3QTp6J-LigZ_Bfz-5" value="" style="edgeStyle=elbowEdgeStyle;elbow=vertical;html=1;rounded=0;" parent="AayKa3QTp6J-LigZ_Bfz-2" source="AayKa3QTp6J-LigZ_Bfz-3" target="AayKa3QTp6J-LigZ_Bfz-4" edge="1">
          <mxGeometry relative="1" as="geometry" />
        </mxCell>
        <mxCell id="AayKa3QTp6J-LigZ_Bfz-6" value="Controllers" style="whiteSpace=wrap;html=1;" parent="AayKa3QTp6J-LigZ_Bfz-2" vertex="1">
          <mxGeometry x="160" y="130" width="100" height="40" as="geometry" />
        </mxCell>
        <mxCell id="AayKa3QTp6J-LigZ_Bfz-7" value="" style="edgeStyle=elbowEdgeStyle;elbow=vertical;html=1;rounded=0;" parent="AayKa3QTp6J-LigZ_Bfz-2" source="AayKa3QTp6J-LigZ_Bfz-3" target="AayKa3QTp6J-LigZ_Bfz-6" edge="1">
          <mxGeometry relative="1" as="geometry" />
        </mxCell>
        <mxCell id="AayKa3QTp6J-LigZ_Bfz-8" style="edgeStyle=orthogonalEdgeStyle;rounded=0;orthogonalLoop=1;jettySize=auto;html=1;exitX=1;exitY=0.75;exitDx=0;exitDy=0;" parent="AayKa3QTp6J-LigZ_Bfz-2" source="AayKa3QTp6J-LigZ_Bfz-3" target="AayKa3QTp6J-LigZ_Bfz-3" edge="1">
          <mxGeometry relative="1" as="geometry" />
        </mxCell>
        <mxCell id="AayKa3QTp6J-LigZ_Bfz-9" value="Blockchain Mechanism" style="swimlane;startSize=20;horizontal=1;childLayout=flowLayout;flowOrientation=north;resizable=0;interRankCellSpacing=50;containerType=tree;" parent="WIyWlLk6GJQsqaUBKTNV-1" vertex="1">
          <mxGeometry x="65" y="430" width="280" height="290" as="geometry" />
        </mxCell>
        <mxCell id="AayKa3QTp6J-LigZ_Bfz-10" value="Start" style="whiteSpace=wrap;html=1;" parent="AayKa3QTp6J-LigZ_Bfz-9" vertex="1">
          <mxGeometry x="87.5" y="40" width="100" height="40" as="geometry" />
        </mxCell>
        <mxCell id="AayKa3QTp6J-LigZ_Bfz-11" value="Network Transactions" style="whiteSpace=wrap;html=1;" parent="AayKa3QTp6J-LigZ_Bfz-9" vertex="1">
          <mxGeometry x="20" y="131.75" width="100" height="46.5" as="geometry" />
        </mxCell>
        <mxCell id="AayKa3QTp6J-LigZ_Bfz-12" value="" style="html=1;curved=1;rounded=0;noEdgeStyle=1;orthogonal=1;" parent="AayKa3QTp6J-LigZ_Bfz-9" source="AayKa3QTp6J-LigZ_Bfz-10" target="AayKa3QTp6J-LigZ_Bfz-11" edge="1">
          <mxGeometry relative="1" as="geometry">
            <Array as="points">
              <mxPoint x="115" y="92" />
              <mxPoint x="70" y="118" />
            </Array>
          </mxGeometry>
        </mxCell>
        <mxCell id="AayKa3QTp6J-LigZ_Bfz-13" value="Computation, Transferring, Synchronisation" style="whiteSpace=wrap;html=1;" parent="AayKa3QTp6J-LigZ_Bfz-9" vertex="1">
          <mxGeometry x="150" y="130" width="110" height="50" as="geometry" />
        </mxCell>
        <mxCell id="AayKa3QTp6J-LigZ_Bfz-14" value="" style="html=1;curved=1;rounded=0;noEdgeStyle=1;orthogonal=1;" parent="AayKa3QTp6J-LigZ_Bfz-9" source="AayKa3QTp6J-LigZ_Bfz-10" target="AayKa3QTp6J-LigZ_Bfz-13" edge="1">
          <mxGeometry relative="1" as="geometry">
            <Array as="points">
              <mxPoint x="160" y="92" />
              <mxPoint x="205" y="118" />
            </Array>
          </mxGeometry>
        </mxCell>
        <mxCell id="AayKa3QTp6J-LigZ_Bfz-15" value="End" style="whiteSpace=wrap;html=1;" parent="AayKa3QTp6J-LigZ_Bfz-9" vertex="1">
          <mxGeometry x="87.5" y="230" width="100" height="40" as="geometry" />
        </mxCell>
        <mxCell id="AayKa3QTp6J-LigZ_Bfz-16" value="" style="html=1;curved=1;rounded=0;noEdgeStyle=1;orthogonal=1;" parent="AayKa3QTp6J-LigZ_Bfz-9" source="AayKa3QTp6J-LigZ_Bfz-11" target="AayKa3QTp6J-LigZ_Bfz-15" edge="1">
          <mxGeometry relative="1" as="geometry">
            <Array as="points">
              <mxPoint x="70" y="192" />
              <mxPoint x="115" y="218" />
            </Array>
          </mxGeometry>
        </mxCell>
        <mxCell id="AayKa3QTp6J-LigZ_Bfz-17" value="" style="html=1;curved=1;rounded=0;noEdgeStyle=1;orthogonal=1;" parent="AayKa3QTp6J-LigZ_Bfz-9" source="AayKa3QTp6J-LigZ_Bfz-13" target="AayKa3QTp6J-LigZ_Bfz-15" edge="1">
          <mxGeometry relative="1" as="geometry">
            <Array as="points">
              <mxPoint x="205" y="192" />
              <mxPoint x="160" y="218" />
            </Array>
          </mxGeometry>
        </mxCell>
        <mxCell id="AayKa3QTp6J-LigZ_Bfz-18" value="Layer 3" style="text;html=1;strokeColor=none;fillColor=none;align=center;verticalAlign=middle;whiteSpace=wrap;rounded=0;fontStyle=7" parent="WIyWlLk6GJQsqaUBKTNV-1" vertex="1">
          <mxGeometry x="70" y="100" width="240" height="30" as="geometry" />
        </mxCell>
        <mxCell id="AayKa3QTp6J-LigZ_Bfz-19" value="" style="endArrow=classic;startArrow=classic;html=1;rounded=0;entryX=0.5;entryY=1;entryDx=0;entryDy=0;" parent="WIyWlLk6GJQsqaUBKTNV-1" target="AayKa3QTp6J-LigZ_Bfz-2" edge="1">
          <mxGeometry width="50" height="50" relative="1" as="geometry">
            <mxPoint x="200" y="430" as="sourcePoint" />
            <mxPoint x="220" y="370" as="targetPoint" />
            <Array as="points">
              <mxPoint x="200" y="400" />
            </Array>
          </mxGeometry>
        </mxCell>
        <mxCell id="AayKa3QTp6J-LigZ_Bfz-25" value="" style="swimlane;startSize=0;" parent="WIyWlLk6GJQsqaUBKTNV-1" vertex="1">
          <mxGeometry x="510" y="100" width="280" height="400" as="geometry" />
        </mxCell>
        <mxCell id="AayKa3QTp6J-LigZ_Bfz-26" value="&lt;b&gt;&lt;i&gt;&lt;u&gt;Layer 2&lt;/u&gt;&lt;/i&gt;&lt;/b&gt;" style="text;html=1;strokeColor=none;fillColor=none;align=center;verticalAlign=middle;whiteSpace=wrap;rounded=0;" parent="AayKa3QTp6J-LigZ_Bfz-25" vertex="1">
          <mxGeometry x="110" width="60" height="30" as="geometry" />
        </mxCell>
        <mxCell id="AayKa3QTp6J-LigZ_Bfz-27" value="MEC Server" style="swimlane;whiteSpace=wrap;html=1;" parent="AayKa3QTp6J-LigZ_Bfz-25" vertex="1">
          <mxGeometry x="50" y="60" width="200" height="210" as="geometry" />
        </mxCell>
        <mxCell id="AayKa3QTp6J-LigZ_Bfz-29" value="" style="shape=parallelogram;perimeter=parallelogramPerimeter;whiteSpace=wrap;html=1;fixedSize=1;" parent="AayKa3QTp6J-LigZ_Bfz-27" vertex="1">
          <mxGeometry x="10" y="50" width="110" height="60" as="geometry" />
        </mxCell>
        <mxCell id="AayKa3QTp6J-LigZ_Bfz-30" value="Distributed Computing" style="text;html=1;strokeColor=none;fillColor=none;align=center;verticalAlign=middle;whiteSpace=wrap;rounded=0;" parent="AayKa3QTp6J-LigZ_Bfz-27" vertex="1">
          <mxGeometry x="35" y="65" width="60" height="30" as="geometry" />
        </mxCell>
        <mxCell id="AayKa3QTp6J-LigZ_Bfz-31" value="" style="edgeStyle=segmentEdgeStyle;endArrow=classic;html=1;rounded=0;" parent="AayKa3QTp6J-LigZ_Bfz-27" edge="1">
          <mxGeometry width="50" height="50" relative="1" as="geometry">
            <mxPoint x="110" y="90" as="sourcePoint" />
            <mxPoint x="160" y="130" as="targetPoint" />
            <Array as="points">
              <mxPoint x="160" y="90" />
            </Array>
          </mxGeometry>
        </mxCell>
        <mxCell id="AayKa3QTp6J-LigZ_Bfz-33" value="" style="shape=parallelogram;perimeter=parallelogramPerimeter;whiteSpace=wrap;html=1;fixedSize=1;labelBackgroundColor=none;labelBorderColor=none;" parent="AayKa3QTp6J-LigZ_Bfz-27" vertex="1">
          <mxGeometry x="70" y="130" width="120" height="60" as="geometry" />
        </mxCell>
        <mxCell id="AayKa3QTp6J-LigZ_Bfz-34" value="Radio Access Network" style="text;html=1;strokeColor=none;fillColor=none;align=center;verticalAlign=middle;whiteSpace=wrap;rounded=0;labelBackgroundColor=none;labelBorderColor=none;" parent="AayKa3QTp6J-LigZ_Bfz-27" vertex="1">
          <mxGeometry x="100" y="145" width="60" height="30" as="geometry" />
        </mxCell>
        <mxCell id="AayKa3QTp6J-LigZ_Bfz-28" value="" style="shape=doubleArrow;whiteSpace=wrap;html=1;labelBackgroundColor=none;labelBorderColor=none;" parent="WIyWlLk6GJQsqaUBKTNV-1" vertex="1">
          <mxGeometry x="350" y="220" width="160" height="60" as="geometry" />
        </mxCell>
        <mxCell id="AayKa3QTp6J-LigZ_Bfz-32" value="&lt;b&gt;&lt;i&gt;&lt;u&gt;offloading&lt;/u&gt;&lt;/i&gt;&lt;/b&gt;" style="text;html=1;strokeColor=none;fillColor=none;align=center;verticalAlign=middle;whiteSpace=wrap;rounded=0;" parent="WIyWlLk6GJQsqaUBKTNV-1" vertex="1">
          <mxGeometry x="400" y="215" width="60" height="30" as="geometry" />
        </mxCell>
        <mxCell id="Dxvohs8K9Onk_g1CbgQr-0" value="" style="swimlane;startSize=0;" vertex="1" parent="WIyWlLk6GJQsqaUBKTNV-1">
          <mxGeometry x="520" y="560" width="270" height="400" as="geometry" />
        </mxCell>
        <mxCell id="Dxvohs8K9Onk_g1CbgQr-1" value="&lt;b&gt;&lt;i&gt;&lt;u&gt;Layer 3&lt;/u&gt;&lt;/i&gt;&lt;/b&gt;" style="text;html=1;strokeColor=none;fillColor=none;align=center;verticalAlign=middle;whiteSpace=wrap;rounded=0;" vertex="1" parent="Dxvohs8K9Onk_g1CbgQr-0">
          <mxGeometry x="110" y="10" width="60" height="30" as="geometry" />
        </mxCell>
        <mxCell id="Dxvohs8K9Onk_g1CbgQr-2" value="Cloud Server" style="swimlane;whiteSpace=wrap;html=1;" vertex="1" parent="Dxvohs8K9Onk_g1CbgQr-0">
          <mxGeometry x="40" y="95" width="200" height="210" as="geometry" />
        </mxCell>
        <mxCell id="Dxvohs8K9Onk_g1CbgQr-3" value="" style="shape=parallelogram;perimeter=parallelogramPerimeter;whiteSpace=wrap;html=1;fixedSize=1;" vertex="1" parent="Dxvohs8K9Onk_g1CbgQr-2">
          <mxGeometry x="10" y="50" width="110" height="60" as="geometry" />
        </mxCell>
        <mxCell id="Dxvohs8K9Onk_g1CbgQr-4" value="Data Storage" style="text;html=1;strokeColor=none;fillColor=none;align=center;verticalAlign=middle;whiteSpace=wrap;rounded=0;" vertex="1" parent="Dxvohs8K9Onk_g1CbgQr-2">
          <mxGeometry x="35" y="65" width="60" height="30" as="geometry" />
        </mxCell>
        <mxCell id="Dxvohs8K9Onk_g1CbgQr-5" value="" style="edgeStyle=segmentEdgeStyle;endArrow=classic;html=1;rounded=0;" edge="1" parent="Dxvohs8K9Onk_g1CbgQr-2">
          <mxGeometry width="50" height="50" relative="1" as="geometry">
            <mxPoint x="110" y="90" as="sourcePoint" />
            <mxPoint x="160" y="130" as="targetPoint" />
            <Array as="points">
              <mxPoint x="160" y="90" />
            </Array>
          </mxGeometry>
        </mxCell>
        <mxCell id="Dxvohs8K9Onk_g1CbgQr-6" value="" style="shape=parallelogram;perimeter=parallelogramPerimeter;whiteSpace=wrap;html=1;fixedSize=1;labelBackgroundColor=none;labelBorderColor=none;" vertex="1" parent="Dxvohs8K9Onk_g1CbgQr-2">
          <mxGeometry x="70" y="130" width="120" height="60" as="geometry" />
        </mxCell>
        <mxCell id="Dxvohs8K9Onk_g1CbgQr-7" value="Data Transfering" style="text;html=1;strokeColor=none;fillColor=none;align=center;verticalAlign=middle;whiteSpace=wrap;rounded=0;labelBackgroundColor=none;labelBorderColor=none;" vertex="1" parent="Dxvohs8K9Onk_g1CbgQr-2">
          <mxGeometry x="100" y="145" width="60" height="30" as="geometry" />
        </mxCell>
        <mxCell id="Dxvohs8K9Onk_g1CbgQr-10" value="" style="endArrow=classic;startArrow=classic;html=1;rounded=0;entryX=0.5;entryY=1;entryDx=0;entryDy=0;exitX=0.5;exitY=0;exitDx=0;exitDy=0;" edge="1" parent="WIyWlLk6GJQsqaUBKTNV-1" source="Dxvohs8K9Onk_g1CbgQr-1" target="AayKa3QTp6J-LigZ_Bfz-25">
          <mxGeometry width="50" height="50" relative="1" as="geometry">
            <mxPoint x="210" y="440" as="sourcePoint" />
            <mxPoint x="210" y="380" as="targetPoint" />
            <Array as="points" />
          </mxGeometry>
        </mxCell>
        <mxCell id="Dxvohs8K9Onk_g1CbgQr-11" value="" style="shape=ext;double=1;whiteSpace=wrap;html=1;aspect=fixed;labelBackgroundColor=none;labelBorderColor=none;" vertex="1" parent="WIyWlLk6GJQsqaUBKTNV-1">
          <mxGeometry x="590" y="480" width="120" height="120" as="geometry" />
        </mxCell>
        <mxCell id="Dxvohs8K9Onk_g1CbgQr-12" value="Edge Computing&lt;br&gt;Services" style="text;html=1;strokeColor=none;fillColor=none;align=center;verticalAlign=middle;whiteSpace=wrap;rounded=0;labelBackgroundColor=none;labelBorderColor=none;fontStyle=7" vertex="1" parent="WIyWlLk6GJQsqaUBKTNV-1">
          <mxGeometry x="620" y="525" width="60" height="30" as="geometry" />
        </mxCell>
      </root>
    </mxGraphModel>
  </diagram>
</mxfile>
